<svg xmlns:mydata="http://www.w3.org/2000/svg" mydata:contrastcolor="11111f" mydata:template="Contrast" mydata:presentation="2.5" mydata:layouttype="undefined" mydata:specialfontid="undefined" mydata:id1="962" mydata:id2="125" mydata:companyname="Facundo Vergara" mydata:companytagline="Front end Developer" version="1.1" xmlns="http://www.w3.org/2000/svg" xmlns:xlink="http://www.w3.org/1999/xlink" style="height: 126px;" viewBox="0 50 550 370">
  <g fill="#ff9e1b" fill-rule="nonzero" stroke="none" stroke-width="1" stroke-linecap="butt" stroke-linejoin="miter" stroke-miterlimit="10" stroke-dasharray="" stroke-dashoffset="0" font-family="none" font-weight="none" font-size="none" text-anchor="none" style="mix-blend-mode: normal">
    <g data-paper-data="{&quot;isGlobalGroup&quot;:true,&quot;bounds&quot;:{&quot;x&quot;:65,&quot;y&quot;:210.5887150734728,&quot;width&quot;:420,&quot;height&quot;:48.82256985305443}}">
      <g data-paper-data="{&quot;isSecondaryText&quot;:true}" id="element-id-15868">
        <path d="M87.84825,254.66937v4.38197h-2.17534v-10.39153h7.4024v1.81539h-5.22707v2.36313h4.56977v1.83104z" data-paper-data="{&quot;glyphName&quot;:&quot;F&quot;,&quot;glyphIndex&quot;:0,&quot;firstGlyphOfWord&quot;:true,&quot;word&quot;:1}" id="element-id-48885"/>
        <path d="M107.95911,250.45954v2.77003h2.72308c0.58426,0 0.99638,-0.13042 1.23634,-0.39125c0.23997,-0.26083 0.35995,-0.58948 0.35995,-0.98594c0,-0.4069 -0.11737,-0.74076 -0.35212,-1.00159c-0.23475,-0.26083 -0.62339,-0.39125 -1.16592,-0.39125zM111.90289,259.05134v-2.67613c0,-0.5008 -0.11477,-0.85814 -0.3443,-1.07202c-0.22953,-0.21388 -0.6573,-0.32082 -1.28329,-0.32082h-2.31618v4.06897h-2.11274v-10.39153h5.27402c0.47993,0 0.91552,0.07564 1.30677,0.22692c0.39125,0.15128 0.72772,0.35995 1.00942,0.626c0.2817,0.26605 0.49819,0.58426 0.64947,0.95464c0.15128,0.37038 0.22692,0.76945 0.22692,1.19722c0,0.5634 -0.13302,1.06158 -0.39907,1.49457c-0.26605,0.43298 -0.64947,0.73815 -1.15027,0.91552c0.45906,0.14607 0.7851,0.37038 0.97812,0.67295c0.19302,0.30256 0.28952,0.75641 0.28952,1.36154v2.94218z" data-paper-data="{&quot;glyphName&quot;:&quot;R&quot;,&quot;glyphIndex&quot;:1,&quot;word&quot;:1}" id="element-id-1869"/>
        <path d="M132.99045,257.54895c0.38603,0 0.7512,-0.07042 1.09549,-0.21127c0.3443,-0.14085 0.64425,-0.35473 0.89987,-0.64165c0.25561,-0.28691 0.45646,-0.65469 0.60252,-1.10332c0.14607,-0.44863 0.2191,-0.98073 0.2191,-1.59629c0,-1.23113 -0.23997,-2.1649 -0.7199,-2.80133c-0.47993,-0.63643 -1.17896,-0.95464 -2.09709,-0.95464c-0.91813,0 -1.62237,0.31821 -2.11274,0.95464c-0.49036,0.63643 -0.73555,1.57021 -0.73555,2.80133c0,1.23113 0.24779,2.13099 0.74337,2.69961c0.49558,0.56861 1.19722,0.85292 2.10491,0.85292zM132.99045,259.41128c-1.60672,0 -2.84046,-0.4695 -3.7012,-1.40849c-0.86074,-0.93899 -1.29112,-2.2901 -1.29112,-4.05332c0,-0.87639 0.10955,-1.66411 0.32865,-2.36313c0.2191,-0.69903 0.54253,-1.29112 0.97029,-1.77626c0.42776,-0.48515 0.94943,-0.85553 1.56499,-1.11114c0.61556,-0.25561 1.32502,-0.38342 2.12839,-0.38342c0.79293,0 1.49978,0.12781 2.12056,0.38342c0.62078,0.25561 1.13983,0.6286 1.55716,1.11897c0.41733,0.49036 0.73555,1.08767 0.95464,1.79191c0.2191,0.70425 0.32865,1.49978 0.32865,2.38661c0,1.79452 -0.42516,3.14563 -1.27547,4.05332c-0.85031,0.90769 -2.07883,1.36154 -3.68555,1.36154z" data-paper-data="{&quot;glyphName&quot;:&quot;O&quot;,&quot;glyphIndex&quot;:2,&quot;word&quot;:1}" id="element-id-66854"/>
        <path d="M158.49052,259.05134l-4.44457,-6.97985v6.97985h-2.01884v-10.39153h2.30053l4.13157,6.68251v-6.68251h2.03449v10.39153z" data-paper-data="{&quot;glyphName&quot;:&quot;N&quot;,&quot;glyphIndex&quot;:3,&quot;word&quot;:1}" id="element-id-22783"/>
        <path d="M176.77699,259.05134v-8.57614h-3.12998v-1.81539h8.45094v1.81539h-3.14563v8.57614z" data-paper-data="{&quot;glyphName&quot;:&quot;T&quot;,&quot;glyphIndex&quot;:4,&quot;lastGlyphOfWord&quot;:true,&quot;word&quot;:1}" id="element-id-72836"/>
        <path d="M207.78094,259.05134v-10.39153h7.63715v1.81539h-5.52441v2.22229h5.08622v1.83104h-5.08622v2.67613h5.77481v1.84669z" data-paper-data="{&quot;glyphName&quot;:&quot;E&quot;,&quot;glyphIndex&quot;:5,&quot;firstGlyphOfWord&quot;:true,&quot;word&quot;:2}" id="element-id-34285"/>
        <path d="M234.98115,259.05134l-4.44457,-6.97985v6.97985h-2.01884v-10.39153h2.30053l4.13157,6.68251v-6.68251h2.03449v10.39153z" data-paper-data="{&quot;glyphName&quot;:&quot;N&quot;,&quot;glyphIndex&quot;:6,&quot;word&quot;:2}" id="element-id-96807"/>
        <path d="M254.7331,257.2829c0.94943,0 1.63802,-0.29474 2.06579,-0.88422c0.42776,-0.58948 0.64165,-1.4737 0.64165,-2.65266c0,-0.58426 -0.05217,-1.08506 -0.1565,-1.50239c-0.10433,-0.41733 -0.27387,-0.75902 -0.50862,-1.02507c-0.23475,-0.26605 -0.5347,-0.45906 -0.89987,-0.57905c-0.36516,-0.11998 -0.80858,-0.17997 -1.33024,-0.17997h-1.61194v6.82335zM250.82062,259.05134v-10.39153h4.02202c0.69903,0 1.34589,0.11737 1.94059,0.35212c0.5947,0.23475 1.10332,0.57122 1.52586,1.00942c0.42255,0.4382 0.7538,0.97029 0.99377,1.59629c0.23997,0.626 0.35995,1.33546 0.35995,2.12839c0,0.79293 -0.10694,1.51543 -0.32082,2.16751c-0.21388,0.65208 -0.51905,1.21026 -0.91552,1.67454c-0.39646,0.46428 -0.87118,0.82423 -1.42414,1.07984c-0.55296,0.25561 -1.16331,0.38342 -1.83104,0.38342z" data-paper-data="{&quot;glyphName&quot;:&quot;D&quot;,&quot;glyphIndex&quot;:7,&quot;lastGlyphOfWord&quot;:true,&quot;word&quot;:2}" id="element-id-4970"/>
        <path d="M290.03575,257.2829c0.94943,0 1.63802,-0.29474 2.06579,-0.88422c0.42776,-0.58948 0.64165,-1.4737 0.64165,-2.65266c0,-0.58426 -0.05217,-1.08506 -0.1565,-1.50239c-0.10433,-0.41733 -0.27387,-0.75902 -0.50862,-1.02507c-0.23475,-0.26605 -0.5347,-0.45906 -0.89987,-0.57905c-0.36516,-0.11998 -0.80858,-0.17997 -1.33024,-0.17997h-1.61194v6.82335zM286.12327,259.05134v-10.39153h4.02202c0.69903,0 1.34589,0.11737 1.94059,0.35212c0.5947,0.23475 1.10332,0.57122 1.52586,1.00942c0.42255,0.4382 0.7538,0.97029 0.99377,1.59629c0.23997,0.626 0.35995,1.33546 0.35995,2.12839c0,0.79293 -0.10694,1.51543 -0.32082,2.16751c-0.21388,0.65208 -0.51905,1.21026 -0.91552,1.67454c-0.39646,0.46428 -0.87118,0.82423 -1.42414,1.07984c-0.55296,0.25561 -1.16331,0.38342 -1.83104,0.38342z" data-paper-data="{&quot;glyphName&quot;:&quot;D&quot;,&quot;glyphIndex&quot;:8,&quot;firstGlyphOfWord&quot;:true,&quot;word&quot;:3}" id="element-id-74070"/>
        <path d="M308.35212,259.05134v-10.39153h7.63715v1.81539h-5.52441v2.22229h5.08622v1.83104h-5.08622v2.67613h5.77481v1.84669z" data-paper-data="{&quot;glyphName&quot;:&quot;E&quot;,&quot;glyphIndex&quot;:9,&quot;word&quot;:3}" id="element-id-63424"/>
        <path d="M332.29715,259.05134l-3.52123,-10.39153h2.31618l2.26923,7.29285l2.25359,-7.29285h2.25359l-3.52123,10.39153z" data-paper-data="{&quot;glyphName&quot;:&quot;V&quot;,&quot;glyphIndex&quot;:10,&quot;word&quot;:3}" id="element-id-89912"/>
        <path d="M351.07419,259.05134v-10.39153h7.63715v1.81539h-5.52441v2.22229h5.08622v1.83104h-5.08622v2.67613h5.77481v1.84669z" data-paper-data="{&quot;glyphName&quot;:&quot;E&quot;,&quot;glyphIndex&quot;:11,&quot;word&quot;:3}" id="element-id-37486"/>
        <path d="M371.36413,259.05134v-10.39153h2.17534v8.49789h5.14882v1.89364z" data-paper-data="{&quot;glyphName&quot;:&quot;L&quot;,&quot;glyphIndex&quot;:12,&quot;word&quot;:3}" id="element-id-99834"/>
        <path d="M395.74741,257.54895c0.38603,0 0.7512,-0.07042 1.09549,-0.21127c0.3443,-0.14085 0.64425,-0.35473 0.89987,-0.64165c0.25561,-0.28691 0.45646,-0.65469 0.60252,-1.10332c0.14607,-0.44863 0.2191,-0.98073 0.2191,-1.59629c0,-1.23113 -0.23997,-2.1649 -0.7199,-2.80133c-0.47993,-0.63643 -1.17896,-0.95464 -2.09709,-0.95464c-0.91813,0 -1.62237,0.31821 -2.11274,0.95464c-0.49036,0.63643 -0.73555,1.57021 -0.73555,2.80133c0,1.23113 0.24779,2.13099 0.74337,2.69961c0.49558,0.56861 1.19722,0.85292 2.10491,0.85292zM395.74741,259.41128c-1.60672,0 -2.84046,-0.4695 -3.7012,-1.40849c-0.86074,-0.93899 -1.29112,-2.2901 -1.29112,-4.05332c0,-0.87639 0.10955,-1.66411 0.32865,-2.36313c0.2191,-0.69903 0.54253,-1.29112 0.97029,-1.77626c0.42776,-0.48515 0.94943,-0.85553 1.56499,-1.11114c0.61556,-0.25561 1.32502,-0.38342 2.12839,-0.38342c0.79293,0 1.49978,0.12781 2.12056,0.38342c0.62078,0.25561 1.13983,0.6286 1.55716,1.11897c0.41733,0.49036 0.73555,1.08767 0.95464,1.79191c0.2191,0.70425 0.32865,1.49978 0.32865,2.38661c0,1.79452 -0.42516,3.14563 -1.27547,4.05332c-0.85031,0.90769 -2.07883,1.36154 -3.68555,1.36154z" data-paper-data="{&quot;glyphName&quot;:&quot;O&quot;,&quot;glyphIndex&quot;:13,&quot;word&quot;:3}" id="element-id-42529"/>
        <path d="M418.81096,253.51127c0.626,0 1.07723,-0.14346 1.35372,-0.43037c0.27648,-0.28691 0.41472,-0.6599 0.41472,-1.11897c0,-0.4382 -0.13824,-0.79814 -0.41472,-1.07984c-0.27648,-0.2817 -0.72772,-0.42255 -1.35372,-0.42255h-2.06579v3.05173zM414.56984,259.05134v-10.39153h4.58542c0.51123,0 0.97029,0.08607 1.37719,0.25822c0.4069,0.17215 0.75641,0.41211 1.04854,0.7199c0.29213,0.30778 0.51645,0.66512 0.67295,1.07202c0.1565,0.4069 0.23475,0.84509 0.23475,1.31459c0,0.4695 -0.07825,0.90509 -0.23475,1.30677c-0.1565,0.40168 -0.38081,0.74598 -0.67295,1.03289c-0.29213,0.28691 -0.64165,0.51123 -1.04854,0.67295c-0.4069,0.16172 -0.86596,0.24257 -1.37719,0.24257h-2.41008v3.77163z" data-paper-data="{&quot;glyphName&quot;:&quot;P&quot;,&quot;glyphIndex&quot;:14,&quot;word&quot;:3}" id="element-id-77612"/>
        <path d="M435.12369,259.05134v-10.39153h7.63715v1.81539h-5.52441v2.22229h5.08622v1.83104h-5.08622v2.67613h5.77481v1.84669z" data-paper-data="{&quot;glyphName&quot;:&quot;E&quot;,&quot;glyphIndex&quot;:15,&quot;word&quot;:3}" id="element-id-3279"/>
        <path d="M457.97323,250.45954v2.77003h2.72308c0.58426,0 0.99638,-0.13042 1.23634,-0.39125c0.23997,-0.26083 0.35995,-0.58948 0.35995,-0.98594c0,-0.4069 -0.11737,-0.74076 -0.35212,-1.00159c-0.23475,-0.26083 -0.62339,-0.39125 -1.16592,-0.39125zM461.917,259.05134v-2.67613c0,-0.5008 -0.11477,-0.85814 -0.3443,-1.07202c-0.22953,-0.21388 -0.6573,-0.32082 -1.28329,-0.32082h-2.31618v4.06897h-2.11274v-10.39153h5.27402c0.47993,0 0.91552,0.07564 1.30677,0.22692c0.39125,0.15128 0.72772,0.35995 1.00942,0.626c0.2817,0.26605 0.49819,0.58426 0.64947,0.95464c0.15128,0.37038 0.22692,0.76945 0.22692,1.19722c0,0.5634 -0.13302,1.06158 -0.39907,1.49457c-0.26605,0.43298 -0.64947,0.73815 -1.15027,0.91552c0.45906,0.14607 0.7851,0.37038 0.97812,0.67295c0.19302,0.30256 0.28952,0.75641 0.28952,1.36154v2.94218z" data-paper-data="{&quot;glyphName&quot;:&quot;R&quot;,&quot;glyphIndex&quot;:16,&quot;lastGlyphOfWord&quot;:true,&quot;word&quot;:3}" id="element-id-3649"/>
      </g>
      <g data-paper-data="{&quot;isPrimaryText&quot;:true}" id="element-id-49369">
        <path d="M65,210.58872v26.54225h10.63036v-10.63036h10.59672v-5.28154h-10.59672v-2.65759h15.91189v-7.97277z" data-paper-data="{&quot;glyphName&quot;:&quot;F&quot;,&quot;glyphIndex&quot;:0,&quot;firstGlyphOfWord&quot;:true,&quot;word&quot;:1}" fill="#ffffff" id="element-id-92281"/>
        <path d="M118.11814,210.58872h-21.22707l-2.65759,2.65759v23.88466h10.63036v-7.97277h5.28154v7.97277h10.63036v-23.88466zM110.14537,223.87666h-5.28154v-5.31518h5.28154z" data-paper-data="{&quot;glyphName&quot;:&quot;A&quot;,&quot;glyphIndex&quot;:1,&quot;word&quot;:1}" fill="#ffffff" id="element-id-45091"/>
        <path d="M123.46696,234.47338l2.65759,2.65759h21.22707l2.65759,-2.65759v-7.97277h-10.63036v2.65759h-5.28154v-10.59672h5.28154v2.65759h10.63036v-7.97277l-2.65759,-2.65759h-21.22707l-2.65759,2.65759z" data-paper-data="{&quot;glyphName&quot;:&quot;C&quot;,&quot;glyphIndex&quot;:2,&quot;word&quot;:1}" fill="#ffffff" id="element-id-9999"/>
        <path d="M197.81217,222.53105l-7.93913,-11.94233h-7.97277v18.56948h-29.19984v7.97277h39.8302v-11.94233l7.93913,11.94233h7.97277v-26.54225h-10.63036zM176.5851,226.50061l2.65759,-2.65759v-13.25431h-10.63036v10.63036h-5.28154v-10.63036h-10.63036v13.25431l2.65759,2.65759z" data-paper-data="{&quot;glyphName&quot;:&quot;&quot;,&quot;glyphIndex&quot;:3,&quot;word&quot;:1}" fill="#ffffff" id="element-id-35709"/>
        <path d="M235.01842,210.58872h-23.88466v26.54225h23.88466l2.65759,-2.65759v-21.22707zM227.04565,229.1582h-5.28154v-10.59672h5.28154z" data-paper-data="{&quot;glyphName&quot;:&quot;D&quot;,&quot;glyphIndex&quot;:4,&quot;word&quot;:1}" fill="#ffffff" id="element-id-66145"/>
        <path d="M266.90949,213.2463l-2.65759,-2.65759h-21.22707l-2.65759,2.65759v21.22707l2.65759,2.65759h21.22707l2.65759,-2.65759zM256.27913,229.1582h-5.28154v-10.59672h5.28154z" data-paper-data="{&quot;glyphName&quot;:&quot;O&quot;,&quot;glyphIndex&quot;:5,&quot;lastGlyphOfWord&quot;:true,&quot;word&quot;:1}" fill="#ffffff" id="element-id-37262"/>
        <path d="M293.75451,210.58872h-10.63036v18.56948l7.97277,7.97277h10.59672l7.97277,-7.97277v-18.56948h-10.63036v15.91189l-2.62395,2.65759l-2.65759,-2.65759z" data-paper-data="{&quot;glyphName&quot;:&quot;V&quot;,&quot;glyphIndex&quot;:6,&quot;firstGlyphOfWord&quot;:true,&quot;word&quot;:2}" id="element-id-46243"/>
        <path d="M338.89988,237.13097v-7.97277h-15.91189v-2.65759h10.59672v-5.28154h-10.59672v-2.65759h15.91189v-7.97277h-26.54225v26.54225z" data-paper-data="{&quot;glyphName&quot;:&quot;E&quot;,&quot;glyphIndex&quot;:7,&quot;word&quot;:2}" id="element-id-13242"/>
        <path d="M368.13336,213.2463l-2.65759,-2.65759h-23.88466v26.54225h10.63036v-7.97277h2.65759l2.62395,2.65759v5.31518h10.63036v-9.28474l-2.65759,-2.65759l2.65759,-2.65759zM357.503,221.21907h-5.28154v-2.65759h5.28154z" data-paper-data="{&quot;glyphName&quot;:&quot;R&quot;,&quot;glyphIndex&quot;:8,&quot;word&quot;:2}" id="element-id-42872"/>
        <path d="M370.82459,213.2463v21.22707l2.65759,2.65759h21.22707l2.65759,-2.65759v-13.25431h-13.25431v5.28154h2.62395v2.65759h-5.28154v-10.59672h45.11173v-7.97277h-53.0845zM423.90909,221.21907h-21.22707l-2.65759,2.62395v13.28795h10.63036v-2.65759h5.28154v2.65759h10.63036v-13.28795zM415.93632,229.1582h-5.28154v-2.65759h5.28154z" data-paper-data="{&quot;glyphName&quot;:&quot;&quot;,&quot;glyphIndex&quot;:9,&quot;word&quot;:2}" id="element-id-64676"/>
        <path d="M482.34241,210.58872h-21.22707l-2.65759,2.65759v13.25431h10.63036v-2.65759h5.28154v2.65759h10.63036v-13.25431zM474.36964,218.56148h-5.28154v-2.65759h5.28154zM453.14257,225.18863l2.65759,-2.65759v-9.28474l-2.65759,-2.65759h-23.88466v26.54225h10.63036v-7.97277h2.65759l7.93913,7.97277h34.51502v-7.97277h-27.85423zM445.1698,221.21907h-5.28154v-2.65759h5.28154z" data-paper-data="{&quot;glyphName&quot;:&quot;&quot;,&quot;glyphIndex&quot;:10,&quot;lastGlyphOfWord&quot;:true,&quot;word&quot;:2}" id="element-id-63349"/>
      </g>
    </g>
  </g>
  <rect data-element-id="element-id-49369" stroke-width="2" fill="transparent" class="invisible-element-box grouping-element" x="65" y="211" width="420" height="27" data-element-name="isPrimaryText"/>
  <rect data-element-id="element-id-15868" stroke-width="2" fill="transparent" class="invisible-element-box grouping-element" x="86" y="248" width="379" height="11" data-element-name="isSecondaryText"/>
  <rect data-element-id="element-id-35709" stroke-width="2" fill="transparent" class="invisible-element-box individual-element" x="153" y="211" width="56" height="27"/>
  <rect data-element-id="element-id-64676" stroke-width="2" fill="transparent" class="invisible-element-box individual-element" x="371" y="211" width="56" height="27"/>
  <rect data-element-id="element-id-63349" stroke-width="2" fill="transparent" class="invisible-element-box individual-element" x="429" y="211" width="56" height="27"/>
  <rect data-element-id="element-id-92281" stroke-width="2" fill="transparent" class="invisible-element-box individual-element" x="65" y="211" width="27" height="27"/>
  <rect data-element-id="element-id-45091" stroke-width="2" fill="transparent" class="invisible-element-box individual-element" x="94" y="211" width="27" height="27"/>
  <rect data-element-id="element-id-9999" stroke-width="2" fill="transparent" class="invisible-element-box individual-element" x="123" y="211" width="27" height="27"/>
  <rect data-element-id="element-id-66145" stroke-width="2" fill="transparent" class="invisible-element-box individual-element" x="211" y="211" width="27" height="27"/>
  <rect data-element-id="element-id-37262" stroke-width="2" fill="transparent" class="invisible-element-box individual-element" x="240" y="211" width="27" height="27"/>
  <rect data-element-id="element-id-46243" stroke-width="2" fill="transparent" class="invisible-element-box individual-element" x="283" y="211" width="27" height="27"/>
  <rect data-element-id="element-id-13242" stroke-width="2" fill="transparent" class="invisible-element-box individual-element" x="312" y="211" width="27" height="27"/>
  <rect data-element-id="element-id-42872" stroke-width="2" fill="transparent" class="invisible-element-box individual-element" x="342" y="211" width="27" height="27"/>
  <rect data-element-id="element-id-66854" stroke-width="2" fill="transparent" class="invisible-element-box individual-element" x="128" y="248" width="10" height="11"/>
  <rect data-element-id="element-id-42529" stroke-width="2" fill="transparent" class="invisible-element-box individual-element" x="391" y="248" width="10" height="11"/>
  <rect data-element-id="element-id-4970" stroke-width="2" fill="transparent" class="invisible-element-box individual-element" x="251" y="249" width="9" height="10"/>
  <rect data-element-id="element-id-74070" stroke-width="2" fill="transparent" class="invisible-element-box individual-element" x="286" y="249" width="9" height="10"/>
  <rect data-element-id="element-id-89912" stroke-width="2" fill="transparent" class="invisible-element-box individual-element" x="329" y="249" width="9" height="10"/>
  <rect data-element-id="element-id-1869" stroke-width="2" fill="transparent" class="invisible-element-box individual-element" x="106" y="249" width="8" height="10"/>
  <rect data-element-id="element-id-22783" stroke-width="2" fill="transparent" class="invisible-element-box individual-element" x="152" y="249" width="8" height="10"/>
  <rect data-element-id="element-id-72836" stroke-width="2" fill="transparent" class="invisible-element-box individual-element" x="174" y="249" width="8" height="10"/>
  <rect data-element-id="element-id-34285" stroke-width="2" fill="transparent" class="invisible-element-box individual-element" x="208" y="249" width="8" height="10"/>
  <rect data-element-id="element-id-96807" stroke-width="2" fill="transparent" class="invisible-element-box individual-element" x="229" y="249" width="8" height="10"/>
  <rect data-element-id="element-id-63424" stroke-width="2" fill="transparent" class="invisible-element-box individual-element" x="308" y="249" width="8" height="10"/>
  <rect data-element-id="element-id-37486" stroke-width="2" fill="transparent" class="invisible-element-box individual-element" x="351" y="249" width="8" height="10"/>
  <rect data-element-id="element-id-77612" stroke-width="2" fill="transparent" class="invisible-element-box individual-element" x="415" y="249" width="8" height="10"/>
  <rect data-element-id="element-id-3279" stroke-width="2" fill="transparent" class="invisible-element-box individual-element" x="435" y="249" width="8" height="10"/>
  <rect data-element-id="element-id-3649" stroke-width="2" fill="transparent" class="invisible-element-box individual-element" x="456" y="249" width="8" height="10"/>
  <rect data-element-id="element-id-48885" stroke-width="2" fill="transparent" class="invisible-element-box individual-element" x="86" y="249" width="7" height="10"/>
  <rect data-element-id="element-id-99834" stroke-width="2" fill="transparent" class="invisible-element-box individual-element" x="371" y="249" width="7" height="10"/>
</svg>
